<svg width="404" height="148" viewBox="0 0 404 148" fill="none" xmlns="http://www.w3.org/2000/svg">
<path d="M131 114.6V115.6H132V114.6H131ZM108.2 114.6V113.6H107.2V114.6H108.2ZM108.2 144V145H109.2V144H108.2ZM76.6 144H75.6V145H76.6V144ZM76.6 114.6H77.6V113.6H76.6V114.6ZM1.2 114.6H0.2V115.6H1.2V114.6ZM1.2 92.8L0.397405 92.2035L0.2 92.4691V92.8H1.2ZM67.2 3.99999V2.99999H66.6973L66.3974 3.40347L67.2 3.99999ZM101.2 3.99999L102.009 4.58793L103.163 2.99999H101.2V3.99999ZM40 88.2L39.1911 87.6121L38.0369 89.2H40V88.2ZM77.6 88.2V89.2H78.6V88.2H77.6ZM77.6 62V61H76.6V62H77.6ZM108.2 62H109.2V61H108.2V62ZM108.2 88.2H107.2V89.2H108.2V88.2ZM131 88.2H132V87.2H131V88.2ZM131 113.6H108.2V115.6H131V113.6ZM107.2 114.6V144H109.2V114.6H107.2ZM108.2 143H76.6V145H108.2V143ZM77.6 144V114.6H75.6V144H77.6ZM76.6 113.6H1.2V115.6H76.6V113.6ZM2.2 114.6V92.8H0.2V114.6H2.2ZM2.0026 93.3965L68.0026 4.59651L66.3974 3.40347L0.397405 92.2035L2.0026 93.3965ZM67.2 4.99999H101.2V2.99999H67.2V4.99999ZM100.391 3.41205L39.1911 87.6121L40.8089 88.7879L102.009 4.58793L100.391 3.41205ZM40 89.2H77.6V87.2H40V89.2ZM78.6 88.2V62H76.6V88.2H78.6ZM77.6 63H108.2V61H77.6V63ZM107.2 62V88.2H109.2V62H107.2ZM108.2 89.2H131V87.2H108.2V89.2ZM130 88.2V114.6H132V88.2H130ZM168.691 137.8L169.225 136.955L169.225 136.955L168.691 137.8ZM147.291 113L146.383 113.42L146.386 113.427L146.39 113.434L147.291 113ZM147.291 35.2L146.388 34.7705L146.385 34.7753L147.291 35.2ZM168.691 10.2L169.225 11.0452L169.225 11.0452L168.691 10.2ZM230.691 10.2L230.156 11.0452L230.156 11.0452L230.691 10.2ZM251.891 35.2L250.983 35.6205L250.986 35.6272L250.99 35.6338L251.891 35.2ZM251.891 113L250.988 112.57L250.985 112.575L251.891 113ZM230.691 137.8L230.156 136.955L230.156 136.955L230.691 137.8ZM219.691 108L218.861 107.442L218.854 107.452L219.691 108ZM219.691 40L218.854 40.5477L218.861 40.5582L219.691 40ZM179.691 40L178.861 39.4418L178.854 39.4523L179.691 40ZM179.691 108L178.854 108.548L178.861 108.558L179.691 108ZM199.691 145.4C188.264 145.4 178.119 142.579 169.225 136.955L168.156 138.645C177.396 144.488 187.917 147.4 199.691 147.4V145.4ZM169.225 136.955C160.335 131.333 153.32 123.218 148.192 112.566L146.39 113.434C151.661 124.382 158.913 132.8 168.156 138.645L169.225 136.955ZM148.198 112.58C143.206 101.807 140.691 88.9568 140.691 74H138.691C138.691 89.1766 141.242 102.327 146.383 113.42L148.198 112.58ZM140.691 74C140.691 59.0427 143.206 46.2616 148.196 35.6247L146.385 34.7753C141.242 45.7383 138.691 58.824 138.691 74H140.691ZM148.194 35.6295C153.323 24.8442 160.338 16.665 169.225 11.0452L168.156 9.3548C158.91 15.2017 151.658 23.6891 146.388 34.7705L148.194 35.6295ZM169.225 11.0452C178.119 5.42122 188.264 2.6 199.691 2.6V0.599998C187.917 0.599998 177.396 3.51211 168.156 9.3548L169.225 11.0452ZM199.691 2.6C211.117 2.6 221.262 5.42122 230.156 11.0452L231.225 9.3548C221.985 3.51211 211.464 0.599998 199.691 0.599998V2.6ZM230.156 11.0452C239.041 16.6634 245.987 24.8394 250.983 35.6205L252.798 34.7795C247.661 23.6939 240.474 15.2033 231.225 9.3548L230.156 11.0452ZM250.99 35.6338C256.11 46.2683 258.691 59.046 258.691 74H260.691C260.691 58.8207 258.071 45.7317 252.792 34.7662L250.99 35.6338ZM258.691 74C258.691 88.9535 256.11 101.8 250.988 112.57L252.794 113.43C258.071 102.333 260.691 89.1798 260.691 74H258.691ZM250.985 112.575C245.99 123.223 239.044 131.335 230.156 136.955L231.225 138.645C240.471 132.799 247.658 124.377 252.796 113.425L250.985 112.575ZM230.156 136.955C221.262 142.579 211.117 145.4 199.691 145.4V147.4C211.464 147.4 221.985 144.488 231.225 138.645L230.156 136.955ZM199.691 120C208.572 120 215.549 116.154 220.527 108.548L218.854 107.452C214.233 114.513 207.876 118 199.691 118V120ZM220.52 108.558C225.62 100.978 228.091 89.403 228.091 74H226.091C226.091 89.2636 223.628 100.355 218.861 107.442L220.52 108.558ZM228.091 74C228.091 58.597 225.62 47.022 220.52 39.4418L218.861 40.5582C223.628 47.6447 226.091 58.7364 226.091 74H228.091ZM220.527 39.4523C215.549 31.846 208.572 28 199.691 28V30C207.876 30 214.233 33.4873 218.854 40.5477L220.527 39.4523ZM199.691 28C190.938 28 183.968 31.8495 178.861 39.4418L180.52 40.5582C185.279 33.4838 191.644 30 199.691 30V28ZM178.854 39.4523C173.894 47.0299 171.491 58.6002 171.491 74H173.491C173.491 58.7332 175.887 47.6367 180.527 40.5477L178.854 39.4523ZM171.491 74C171.491 89.3998 173.894 100.97 178.854 108.548L180.527 107.452C175.887 100.363 173.491 89.2668 173.491 74H171.491ZM178.861 108.558C183.968 116.151 190.938 120 199.691 120V118C191.644 118 185.279 114.516 180.52 107.442L178.861 108.558ZM402.633 114.6V115.6H403.633V114.6H402.633ZM379.833 114.6V113.6H378.833V114.6H379.833ZM379.833 144V145H380.833V144H379.833ZM348.233 144H347.233V145H348.233V144ZM348.233 114.6H349.233V113.6H348.233V114.6ZM272.833 114.6H271.833V115.6H272.833V114.6ZM272.833 92.8L272.03 92.2035L271.833 92.4691V92.8H272.833ZM338.833 3.99999V2.99999H338.33L338.03 3.40347L338.833 3.99999ZM372.833 3.99999L373.642 4.58793L374.796 2.99999H372.833V3.99999ZM311.633 88.2L310.824 87.6121L309.67 89.2H311.633V88.2ZM349.233 88.2V89.2H350.233V88.2H349.233ZM349.233 62V61H348.233V62H349.233ZM379.833 62H380.833V61H379.833V62ZM379.833 88.2H378.833V89.2H379.833V88.2ZM402.633 88.2H403.633V87.2H402.633V88.2ZM402.633 113.6H379.833V115.6H402.633V113.6ZM378.833 114.6V144H380.833V114.6H378.833ZM379.833 143H348.233V145H379.833V143ZM349.233 144V114.6H347.233V144H349.233ZM348.233 113.6H272.833V115.6H348.233V113.6ZM273.833 114.6V92.8H271.833V114.6H273.833ZM273.635 93.3965L339.635 4.59651L338.03 3.40347L272.03 92.2035L273.635 93.3965ZM338.833 4.99999H372.833V2.99999H338.833V4.99999ZM372.024 3.41205L310.824 87.6121L312.442 88.7879L373.642 4.58793L372.024 3.41205ZM311.633 89.2H349.233V87.2H311.633V89.2ZM350.233 88.2V62H348.233V88.2H350.233ZM349.233 63H379.833V61H349.233V63ZM378.833 62V88.2H380.833V62H378.833ZM379.833 89.2H402.633V87.2H379.833V89.2ZM401.633 88.2V114.6H403.633V88.2H401.633Z" fill="#1A1A47"/>
</svg>