<svg width="60" height="53" viewBox="0 0 60 53" fill="none" xmlns="http://www.w3.org/2000/svg">
<path d="M3.09104 52.9578H2.24418L1.27029 50.093L0.84686 52.9578H0L0.677488 48.6605H1.52435L2.66761 52.031L3.81087 48.6605H4.65773L5.33522 52.9578H4.48836L4.06493 50.1772L3.09104 52.9578Z" fill="#1A1A47"/>
<path d="M11.3059 52.9578H10.4167L10.078 52.0731H8.2149L7.87616 52.9578H7.0293L8.76536 48.6605H9.61222L11.3059 52.9578ZM9.14645 49.6717L8.5113 51.3147H9.78159L9.14645 49.6717Z" fill="#1A1A47"/>
<path d="M14.0578 52.9578H13.2109V48.6605H14.6506C15.1164 48.6605 15.4975 48.7869 15.7939 48.9976C16.0903 49.2503 16.2173 49.5453 16.2173 49.9244C16.2173 50.1772 16.1326 50.43 16.0056 50.5985C15.8785 50.8092 15.7092 50.9356 15.4551 51.062L16.4713 52.9157H15.5398L14.6506 51.2726H14.0578V52.9578ZM15.3704 49.9666C15.3704 49.798 15.3281 49.6717 15.2011 49.5453C15.074 49.461 14.9047 49.3767 14.6929 49.3767H14.1001V50.5143H14.6929C14.9047 50.5143 15.074 50.4721 15.2011 50.3457C15.2857 50.3036 15.3704 50.1351 15.3704 49.9666Z" fill="#1A1A47"/>
<path d="M19.3925 51.1462H19.3078V52.9578H18.4609V48.6605H19.3078V50.3879H19.3925C19.6042 50.3879 19.7736 50.3457 19.9006 50.3036C20.0276 50.2193 20.1547 50.093 20.2817 49.8823L21.0015 48.7027H21.9331L21.2132 49.8823C21.1285 50.0508 21.0015 50.2193 20.9168 50.3457C20.8321 50.4721 20.7475 50.5985 20.6628 50.6828L22.1024 53H21.1285L19.9853 51.1462C19.9006 51.1462 19.8159 51.1883 19.7312 51.1883C19.6042 51.1462 19.5195 51.1462 19.3925 51.1462Z" fill="#1A1A47"/>
<path d="M26.6767 52.9578H23.9668V48.6605H26.6767V49.4189H24.8137V50.3879H26.5074V51.1462H24.8137V52.1995H26.6767V52.9578Z" fill="#1A1A47"/>
<path d="M29.7254 49.4189H28.4551V48.6605H31.8425V49.4189H30.5722V52.9578H29.7254V49.4189Z" fill="#1A1A47"/>
<path d="M37.3039 52.9578H36.457V48.6605H37.812C38.3201 48.6605 38.7436 48.7869 39.04 49.0397C39.3364 49.2925 39.4634 49.6295 39.4634 50.0508C39.4634 50.4721 39.294 50.8092 38.9976 51.062C38.7012 51.3147 38.3201 51.4411 37.812 51.4411H37.3039V52.9578ZM38.5742 50.0508C38.5742 49.8402 38.4895 49.7138 38.3625 49.5874C38.2354 49.461 38.0237 49.4189 37.812 49.4189H37.3039V50.6828H37.812C38.0661 50.6828 38.2354 50.6407 38.4048 50.5143C38.4895 50.43 38.5742 50.2615 38.5742 50.0508Z" fill="#1A1A47"/>
<path d="M42.343 52.1995H44.1637V52.9578H41.4961V48.6605H42.343V52.1995Z" fill="#1A1A47"/>
<path d="M50.0071 52.9578H49.1179L48.7792 52.0731H46.9161L46.5773 52.9578H45.7305L47.4665 48.6605H48.3134L50.0071 52.9578ZM47.8053 49.6717L47.1701 51.3147H48.4404L47.8053 49.6717Z" fill="#1A1A47"/>
<path d="M53.7331 49.3767C53.352 49.3767 53.0556 49.5031 52.8015 49.798C52.5475 50.0508 52.4205 50.3879 52.4205 50.8092C52.4205 51.2305 52.5475 51.5675 52.8015 51.8203C53.0556 52.0731 53.352 52.2416 53.7331 52.2416C53.9448 52.2416 54.1142 52.1995 54.2835 52.1152C54.4529 52.031 54.6223 51.9046 54.7917 51.736L55.3421 52.3259C55.0881 52.5786 54.8763 52.7472 54.5799 52.8736C54.3259 53 54.0295 53.0421 53.7331 53.0421C53.0979 53.0421 52.5898 52.8314 52.1664 52.4101C51.743 51.9888 51.5312 51.4833 51.5312 50.8513C51.5312 50.2193 51.743 49.7138 52.1664 49.2925C52.5898 48.8712 53.0979 48.6605 53.7331 48.6605C54.0295 48.6605 54.3259 48.7027 54.5799 48.829C54.834 48.9554 55.0881 49.124 55.2998 49.3346L54.7917 49.9244C54.6223 49.7559 54.4953 49.6717 54.3259 49.5874C54.1565 49.5031 53.9025 49.3767 53.7331 49.3767Z" fill="#1A1A47"/>
<path d="M60.001 52.9578H57.291V48.6605H60.001V49.4189H58.1379V50.3879H59.8316V51.1462H58.1379V52.1995H60.001V52.9578Z" fill="#1A1A47"/>
<path d="M30.4455 12.4285H31.6734C35.1032 12.4285 37.9402 9.64785 37.9402 6.19316C37.9402 2.7806 35.1032 0 31.6734 0H22.8661V3.37043H31.6311C33.1978 3.37043 34.5104 4.67647 34.5104 6.23529C34.5104 7.79412 33.1978 9.10016 31.6311 9.10016H22.5273L34.0023 21.5286H38.8294L30.4455 12.4285Z" fill="#F87524"/>
<path d="M42.5547 0V3.37043H49.5836V21.5286H52.9711V3.37043H60V0H42.5547Z" fill="#DC2018"/>
<path d="M10.0353 0L0 21.5286H3.55681L5.58927 17.1892H14.439L16.4714 21.5286H20.0282L10.0353 0ZM12.957 13.9452H7.07128L9.99294 7.6256L12.957 13.9452Z" fill="#FBB72D"/>
<path d="M7.66408 33.0723H4.74241C3.17572 33.0723 1.90543 31.8084 1.90543 30.2496C1.90543 28.6908 3.17572 27.4269 4.74241 27.4269H11.5596V25.531H4.74241C2.11715 25.5731 0 27.6797 0 30.2496C0 32.8617 2.11715 34.9682 4.74241 34.9682H5.63162H7.66408C9.23077 34.9682 10.5011 36.2321 10.5011 37.7909C10.5011 39.3498 9.23077 40.6137 7.66408 40.6137L0.84686 40.5715V42.4674H7.66408C10.2893 42.4674 12.4065 40.3609 12.4065 37.7488C12.4065 35.1789 10.2893 33.0723 7.66408 33.0723Z" fill="#FB0F47"/>
<path d="M35.5265 40.5715V25.5731H33.6211V42.5095H45.1807V40.5715H35.5265Z" fill="#3B7EBA"/>
<path d="M22.6121 25.5731L14.7363 42.5095H16.8111L18.5472 38.8021H26.6771L28.4131 42.5095H30.4879L22.6121 25.5731ZM25.8302 36.9062H19.4364L22.6545 29.9968L25.8302 36.9062Z" fill="#6B23AB"/>
<path d="M50.4732 40.5715V34.9682H58.5183V33.0723H50.4732V27.469H60.0003V25.5731H48.5254V42.5095H60.0003V40.5715H50.4732Z" fill="#4BD2BD"/>
</svg>